<svg width="1305" height="568" viewBox="0 0 1305 568" fill="none" xmlns="http://www.w3.org/2000/svg">
<g clip-path="url(#clip0)">
<path opacity="0.3" d="M218.838 436.853C218.838 436.853 289.498 396.869 396.519 393.308C521.598 389.147 616.361 466.85 616.361 466.85" stroke="white" stroke-width="2" stroke-linecap="round" stroke-linejoin="round"/>
<path opacity="0.3" d="M447.715 395.243C447.715 395.243 496.388 349.046 565.165 351.698C633.943 354.349 660.207 385.479 703.317 406.613C767.873 438.275 866.984 396.617 944.354 405.906C1049.19 418.496 1098.21 463.899 1098.21 463.899" stroke="white" stroke-width="2" stroke-linecap="round" stroke-linejoin="round"/>
<path opacity="0.3" d="M186.715 563.616C186.715 563.616 360.381 465.882 541.073 462.979C721.765 460.076 858.288 563.616 858.288 563.616" stroke="white" stroke-width="2"/>
<path opacity="0.3" d="M804.081 530.716C804.081 530.716 934.636 460.976 1054.04 460.076C1173.44 459.177 1308.01 565.552 1308.01 565.552" stroke="white" stroke-width="2"/>
<path opacity="0.3" d="M664.546 384.599C664.546 384.599 701.689 344.925 753.889 347.828C806.089 350.731 841.223 379.761 841.223 379.761" stroke="white" stroke-width="2"/>
<path opacity="0.3" d="M797.054 417.499C797.054 417.499 855.277 350.73 920.527 355.569C977.571 359.797 1017.9 397.178 1017.9 397.178" stroke="white" stroke-width="2"/>
<path opacity="0.3" d="M994.812 415.564C994.812 415.564 1024.98 383.225 1056.05 383.631C1087.12 384.037 1116.28 410.726 1116.28 410.726" stroke="white" stroke-width="2"/>
<path opacity="0.3" d="M345.323 498.783C345.323 498.783 212.815 420.402 141.542 423.305C70.2692 426.208 0 478.462 0 478.462" stroke="white" stroke-width="2"/>
<path opacity="0.3" d="M33.0215 416.531C33.0215 416.531 34.8415 407.455 41.7389 407.939C47.5662 408.355 50.2535 416.115 50.4563 415.961" stroke="white"/>
<path opacity="0.3" d="M45.8076 409.661C45.8076 409.661 47.6276 400.575 54.525 401.068C60.3523 401.475 63.0396 409.245 63.2424 409.08" stroke="white" stroke-linecap="round" stroke-linejoin="round"/>
<path opacity="0.3" d="M19.0732 409.661C19.0732 409.661 20.8932 400.575 27.7906 401.068C33.618 401.475 36.3053 409.245 36.508 409.08" stroke="white" stroke-linecap="round" stroke-linejoin="round"/>
<path opacity="0.3" d="M1202.78 371.855C1202.78 371.855 1205.16 360.039 1214.17 360.668C1221.79 361.21 1225.3 371.313 1225.57 371.11" stroke="white" stroke-linecap="round" stroke-linejoin="round"/>
<path opacity="0.3" d="M1219.49 362.904C1219.49 362.904 1221.87 351.089 1230.89 351.718C1238.51 352.259 1242.02 362.372 1242.29 362.159" stroke="white" stroke-linecap="round" stroke-linejoin="round"/>
<path opacity="0.3" d="M1184.54 362.904C1184.54 362.904 1186.92 351.089 1195.93 351.718C1203.55 352.259 1207.06 362.372 1207.34 362.159" stroke="white" stroke-linecap="round" stroke-linejoin="round"/>
<path opacity="0.3" d="M1099.21 423.305C1099.21 423.305 1135.05 392.998 1154.42 393.308C1175.88 393.646 1209.63 422.338 1209.63 422.338" stroke="white" stroke-width="2" stroke-linecap="round" stroke-linejoin="round"/>
<path opacity="0.3" d="M1159.44 445.562C1159.44 445.562 1214.59 416.057 1236.74 415.564C1258.88 415.07 1310.02 446.529 1310.02 446.529" stroke="white" stroke-width="2" stroke-linecap="round" stroke-linejoin="round"/>
<path opacity="0.3" fill-rule="evenodd" clip-rule="evenodd" d="M156.326 402.404C156.088 402.536 155.901 402.741 155.796 402.986C155.691 403.231 155.673 403.502 155.744 403.758C155.815 404.014 155.973 404.24 156.191 404.401C156.41 404.562 156.677 404.65 156.952 404.649C157.172 404.651 157.388 404.594 157.576 404.484L165.699 399.965L173.822 404.484C174.01 404.594 174.226 404.651 174.445 404.649C174.72 404.649 174.988 404.562 175.206 404.401C175.425 404.24 175.582 404.014 175.653 403.758C175.724 403.502 175.706 403.23 175.601 402.985C175.495 402.74 175.309 402.536 175.071 402.404L166.949 397.875V388.837C166.949 388.517 166.817 388.211 166.583 387.985C166.348 387.759 166.03 387.632 165.699 387.632C165.367 387.632 165.05 387.759 164.815 387.985C164.581 388.211 164.449 388.517 164.449 388.837V397.875L156.326 402.404ZM108.643 404.649C108.863 404.651 109.079 404.594 109.267 404.484L117.39 399.965L125.513 404.484C125.701 404.594 125.917 404.651 126.136 404.649C126.411 404.65 126.679 404.562 126.898 404.401C127.116 404.24 127.273 404.014 127.345 403.758C127.416 403.502 127.398 403.231 127.293 402.986C127.187 402.741 127.001 402.536 126.763 402.404L118.64 397.875V388.837C118.63 388.523 118.495 388.226 118.261 388.007C118.028 387.789 117.716 387.667 117.39 387.667C117.065 387.667 116.752 387.789 116.519 388.007C116.286 388.226 116.15 388.523 116.141 388.837V397.875L108.018 402.404C107.78 402.536 107.594 402.74 107.489 402.984C107.383 403.229 107.364 403.5 107.435 403.756C107.506 404.012 107.662 404.238 107.88 404.399C108.098 404.561 108.365 404.649 108.639 404.649H108.643ZM125.623 385.528C125.842 385.529 126.057 385.475 126.248 385.373L139.113 378.212C139.79 378.774 140.653 379.083 141.546 379.083C142.439 379.083 143.303 378.774 143.98 378.212L156.846 385.373C157.036 385.475 157.251 385.528 157.469 385.528C157.744 385.528 158.012 385.441 158.23 385.28C158.449 385.119 158.606 384.893 158.677 384.637C158.748 384.381 158.73 384.109 158.625 383.864C158.519 383.62 158.333 383.415 158.095 383.283L145.231 376.122C145.395 375.276 145.239 374.401 144.793 373.656C144.346 372.911 143.638 372.344 142.796 372.058V357.737C142.796 357.417 142.664 357.111 142.43 356.885C142.196 356.659 141.878 356.532 141.546 356.532C141.215 356.532 140.897 356.659 140.663 356.885C140.428 357.111 140.297 357.417 140.297 357.737V372.058C139.454 372.343 138.745 372.91 138.299 373.655C137.852 374.401 137.697 375.276 137.862 376.122L124.998 383.283C124.76 383.415 124.574 383.619 124.469 383.863C124.363 384.108 124.345 384.379 124.415 384.635C124.486 384.891 124.642 385.117 124.86 385.278C125.078 385.44 125.345 385.527 125.619 385.528H125.623ZM141.542 374.264C141.79 374.264 142.032 374.335 142.237 374.467C142.443 374.6 142.603 374.789 142.697 375.009C142.792 375.229 142.816 375.472 142.768 375.705C142.719 375.939 142.6 376.154 142.424 376.322C142.249 376.491 142.026 376.605 141.783 376.651C141.54 376.697 141.289 376.672 141.061 376.58C140.832 376.489 140.637 376.333 140.501 376.134C140.364 375.936 140.292 375.702 140.293 375.464C140.294 375.145 140.426 374.84 140.661 374.615C140.895 374.391 141.212 374.264 141.542 374.264V374.264ZM166.948 424.824V403.391C166.938 403.077 166.803 402.78 166.57 402.561C166.336 402.342 166.024 402.22 165.698 402.22C165.373 402.22 165.061 402.342 164.827 402.561C164.594 402.78 164.458 403.077 164.449 403.391V424.147C157.383 422.322 150.107 421.357 142.792 421.273V382.692C142.792 382.373 142.66 382.066 142.426 381.84C142.192 381.614 141.874 381.488 141.542 381.488C141.211 381.488 140.893 381.614 140.659 381.84C140.424 382.066 140.293 382.373 140.293 382.692V421.273C132.977 421.357 125.702 422.322 118.636 424.147V403.391C118.626 403.077 118.491 402.78 118.257 402.561C118.024 402.342 117.712 402.22 117.386 402.22C117.061 402.22 116.748 402.342 116.515 402.561C116.282 402.78 116.146 403.077 116.137 403.391V424.824C119.475 426.789 129.142 419.473 166.948 424.824Z" fill="white"/>
<path opacity="0.3" fill-rule="evenodd" clip-rule="evenodd" d="M418.933 371.937C418.695 372.069 418.508 372.274 418.403 372.519C418.298 372.764 418.279 373.035 418.351 373.291C418.422 373.547 418.58 373.773 418.798 373.934C419.017 374.095 419.284 374.183 419.559 374.182C419.779 374.184 419.995 374.127 420.183 374.017L428.306 369.498L436.429 374.017C436.617 374.127 436.833 374.184 437.052 374.182C437.327 374.182 437.595 374.095 437.813 373.934C438.031 373.773 438.189 373.547 438.26 373.291C438.331 373.035 438.313 372.763 438.207 372.518C438.102 372.273 437.916 372.069 437.678 371.937L429.556 367.408V358.37C429.556 358.05 429.424 357.744 429.19 357.518C428.955 357.292 428.637 357.165 428.306 357.165C427.974 357.165 427.656 357.292 427.422 357.518C427.188 357.744 427.056 358.05 427.056 358.37V367.408L418.933 371.937ZM371.25 374.182C371.47 374.184 371.686 374.127 371.874 374.017L379.997 369.498L388.12 374.017C388.308 374.127 388.524 374.184 388.743 374.182C389.018 374.183 389.286 374.095 389.504 373.934C389.723 373.773 389.88 373.547 389.952 373.291C390.023 373.035 390.005 372.764 389.899 372.519C389.794 372.274 389.608 372.069 389.37 371.937L381.247 367.408V358.37C381.237 358.056 381.102 357.759 380.868 357.54C380.635 357.322 380.323 357.2 379.997 357.2C379.672 357.2 379.359 357.322 379.126 357.54C378.893 357.759 378.757 358.056 378.748 358.37V367.408L370.625 371.937C370.387 372.069 370.201 372.273 370.095 372.517C369.99 372.762 369.971 373.033 370.042 373.289C370.113 373.545 370.269 373.771 370.487 373.932C370.705 374.094 370.972 374.182 371.246 374.182H371.25ZM388.23 356.996C388.449 356.997 388.664 356.943 388.855 356.841L401.72 349.68C402.397 350.242 403.26 350.552 404.153 350.552C405.046 350.552 405.91 350.242 406.587 349.68L419.453 356.841C419.643 356.943 419.858 356.997 420.076 356.996C420.351 356.996 420.619 356.909 420.837 356.748C421.055 356.587 421.212 356.361 421.284 356.105C421.355 355.849 421.337 355.578 421.231 355.333C421.126 355.088 420.94 354.883 420.702 354.751L407.838 347.59C408.002 346.744 407.846 345.87 407.4 345.125C406.953 344.379 406.245 343.812 405.403 343.526V329.205C405.403 328.885 405.271 328.579 405.037 328.353C404.803 328.127 404.485 328 404.153 328C403.822 328 403.504 328.127 403.27 328.353C403.035 328.579 402.903 328.885 402.903 329.205V343.526C402.061 343.811 401.352 344.378 400.906 345.124C400.459 345.869 400.304 346.744 400.469 347.59L387.605 354.751C387.367 354.883 387.181 355.087 387.075 355.332C386.97 355.576 386.951 355.848 387.022 356.103C387.093 356.359 387.249 356.585 387.467 356.746C387.685 356.908 387.952 356.996 388.226 356.996H388.23ZM404.149 345.732C404.397 345.732 404.638 345.803 404.844 345.936C405.05 346.068 405.21 346.257 405.304 346.477C405.399 346.698 405.423 346.94 405.375 347.174C405.326 347.408 405.206 347.623 405.031 347.791C404.856 347.959 404.633 348.073 404.39 348.119C404.147 348.165 403.896 348.141 403.667 348.049C403.439 347.957 403.244 347.802 403.108 347.603C402.971 347.404 402.898 347.171 402.899 346.932C402.901 346.614 403.033 346.309 403.268 346.084C403.502 345.859 403.819 345.732 404.149 345.732ZM429.555 394.357V372.924C429.545 372.61 429.41 372.313 429.176 372.094C428.943 371.875 428.631 371.753 428.305 371.753C427.98 371.753 427.667 371.875 427.434 372.094C427.201 372.313 427.065 372.61 427.056 372.924V393.68C420.043 391.861 412.801 392.838 405.399 392.741V354.16C405.399 353.841 405.267 353.535 405.033 353.309C404.799 353.083 404.481 352.956 404.149 352.956C403.818 352.956 403.5 353.083 403.266 353.309C403.031 353.535 402.899 353.841 402.899 354.16V392.741C395.494 392.838 388.255 391.861 381.242 393.68V372.924C381.233 372.61 381.098 372.313 380.864 372.094C380.631 371.875 380.319 371.753 379.993 371.753C379.668 371.753 379.355 371.875 379.122 372.094C378.889 372.313 378.753 372.61 378.744 372.924V394.357C381.17 395.789 386.661 393.758 404.149 393.806C410.721 393.825 419.228 392.896 429.555 394.357Z" fill="white"/>
<path opacity="0.3" fill-rule="evenodd" clip-rule="evenodd" d="M923.073 340.883C922.879 340.994 922.738 341.173 922.681 341.383C922.623 341.593 922.653 341.816 922.765 342.005C922.839 342.129 922.946 342.232 923.074 342.303C923.203 342.374 923.348 342.412 923.497 342.412C923.645 342.414 923.791 342.377 923.918 342.305L929.408 339.228L934.897 342.305C935.025 342.377 935.171 342.414 935.319 342.412C935.467 342.412 935.613 342.374 935.742 342.303C935.871 342.232 935.977 342.129 936.052 342.005C936.163 341.816 936.193 341.593 936.135 341.383C936.077 341.173 935.936 340.994 935.743 340.883L930.253 337.805V331.661C930.256 331.551 930.238 331.442 930.197 331.34C930.156 331.238 930.095 331.145 930.016 331.067C929.937 330.988 929.842 330.925 929.738 330.882C929.634 330.84 929.521 330.818 929.408 330.818C929.294 330.818 929.182 330.84 929.078 330.882C928.973 330.925 928.879 330.988 928.8 331.067C928.721 331.145 928.66 331.238 928.619 331.34C928.578 331.442 928.559 331.551 928.563 331.661V337.805L923.073 340.883ZM890.845 342.412C890.993 342.414 891.139 342.377 891.266 342.305L896.756 339.228L902.245 342.305C902.373 342.377 902.519 342.414 902.667 342.412C902.815 342.412 902.961 342.374 903.09 342.303C903.219 342.232 903.325 342.129 903.4 342.005C903.511 341.816 903.541 341.593 903.483 341.383C903.425 341.173 903.284 340.994 903.091 340.883L897.6 337.805V331.661C897.604 331.551 897.585 331.442 897.545 331.34C897.504 331.238 897.442 331.145 897.364 331.067C897.285 330.988 897.19 330.925 897.086 330.882C896.981 330.84 896.869 330.818 896.756 330.818C896.642 330.818 896.53 330.84 896.426 330.882C896.321 330.925 896.227 330.988 896.148 331.067C896.069 331.145 896.007 331.238 895.967 331.34C895.926 331.442 895.907 331.551 895.911 331.661V337.805L890.422 340.883C890.228 340.993 890.087 341.173 890.029 341.383C889.971 341.593 890.001 341.816 890.113 342.005C890.187 342.129 890.293 342.232 890.422 342.303C890.55 342.374 890.696 342.412 890.845 342.412V342.412ZM902.321 330.722C902.469 330.725 902.615 330.688 902.742 330.616L911.437 325.739C911.894 326.12 912.478 326.33 913.082 326.33C913.686 326.33 914.27 326.12 914.726 325.739L923.421 330.616C923.549 330.688 923.695 330.725 923.843 330.722C923.991 330.723 924.137 330.685 924.266 330.614C924.394 330.543 924.501 330.44 924.575 330.316C924.687 330.127 924.718 329.903 924.66 329.693C924.602 329.483 924.461 329.304 924.267 329.193L915.572 324.326C915.601 324.176 915.615 324.024 915.615 323.871C915.615 323.365 915.452 322.871 915.15 322.457C914.848 322.044 914.42 321.729 913.926 321.558V311.814C913.926 311.598 913.837 311.391 913.679 311.239C913.52 311.086 913.306 311 913.082 311C912.858 311 912.643 311.086 912.485 311.239C912.327 311.391 912.238 311.598 912.238 311.814V321.558C911.743 321.729 911.316 322.044 911.013 322.457C910.711 322.871 910.549 323.365 910.548 323.871C910.549 324.024 910.563 324.176 910.591 324.326L901.898 329.193C901.703 329.303 901.562 329.483 901.504 329.693C901.446 329.903 901.477 330.127 901.589 330.316C901.663 330.44 901.769 330.543 901.898 330.614C902.026 330.685 902.172 330.723 902.321 330.722V330.722ZM913.082 323.058C913.25 323.058 913.415 323.105 913.555 323.195C913.695 323.284 913.804 323.412 913.869 323.562C913.933 323.711 913.951 323.876 913.918 324.035C913.885 324.194 913.804 324.34 913.685 324.455C913.566 324.569 913.415 324.647 913.25 324.678C913.085 324.709 912.914 324.693 912.759 324.63C912.604 324.568 912.471 324.462 912.378 324.327C912.286 324.192 912.237 324.033 912.238 323.871C912.238 323.656 912.328 323.449 912.486 323.297C912.644 323.144 912.858 323.059 913.082 323.058V323.058ZM930.253 356.152V341.56C930.256 341.451 930.238 341.342 930.197 341.24C930.156 341.137 930.095 341.045 930.016 340.966C929.937 340.887 929.842 340.824 929.738 340.782C929.634 340.739 929.521 340.717 929.408 340.717C929.294 340.717 929.182 340.739 929.078 340.782C928.973 340.824 928.879 340.887 928.8 340.966C928.721 341.045 928.66 341.137 928.619 341.24C928.578 341.342 928.559 341.451 928.563 341.56V355.688C923.824 354.449 918.926 355.107 913.926 355.049V328.787C913.926 328.571 913.837 328.364 913.679 328.211C913.52 328.059 913.306 327.973 913.082 327.973C912.858 327.973 912.643 328.059 912.485 328.211C912.327 328.364 912.238 328.571 912.238 328.787V355.049C907.232 355.107 902.34 354.449 897.6 355.688V341.56C897.604 341.451 897.585 341.342 897.545 341.24C897.504 341.137 897.442 341.045 897.364 340.966C897.285 340.887 897.19 340.824 897.086 340.782C896.981 340.739 896.869 340.717 896.756 340.717C896.642 340.717 896.53 340.739 896.426 340.782C896.321 340.824 896.227 340.887 896.148 340.966C896.069 341.045 896.007 341.137 895.967 341.24C895.926 341.342 895.907 341.451 895.911 341.56V356.152C897.551 357.12 901.263 355.736 913.082 355.775C917.524 355.784 923.273 355.156 930.253 356.152Z" fill="white"/>
<path opacity="0.3" fill-rule="evenodd" clip-rule="evenodd" d="M756.864 339.432C756.742 339.5 756.654 339.611 756.617 339.741C756.581 339.872 756.599 340.011 756.669 340.128C756.718 340.204 756.786 340.268 756.867 340.312C756.947 340.356 757.038 340.379 757.131 340.38C757.224 340.382 757.316 340.358 757.397 340.313L760.86 338.416L764.324 340.313C764.404 340.358 764.496 340.381 764.59 340.38C764.682 340.379 764.773 340.356 764.854 340.312C764.935 340.268 765.003 340.205 765.051 340.128C765.086 340.07 765.109 340.006 765.118 339.94C765.127 339.873 765.122 339.806 765.104 339.741C765.086 339.677 765.055 339.616 765.012 339.563C764.97 339.51 764.917 339.465 764.857 339.432L761.393 337.535V333.742C761.387 333.61 761.329 333.485 761.229 333.393C761.13 333.301 760.998 333.25 760.861 333.25C760.723 333.25 760.591 333.301 760.492 333.393C760.393 333.485 760.334 333.61 760.328 333.742V337.535L756.864 339.432ZM736.532 340.38C736.625 340.382 736.718 340.358 736.798 340.313L740.261 338.416L743.725 340.313C743.805 340.358 743.897 340.381 743.991 340.38C744.083 340.379 744.174 340.356 744.255 340.312C744.336 340.268 744.404 340.205 744.452 340.128C744.487 340.07 744.51 340.006 744.519 339.94C744.528 339.873 744.523 339.806 744.505 339.741C744.487 339.677 744.456 339.616 744.413 339.563C744.371 339.51 744.318 339.465 744.258 339.432L740.794 337.535V333.742C740.794 333.606 740.738 333.475 740.638 333.379C740.538 333.282 740.403 333.228 740.261 333.228C740.12 333.228 739.984 333.282 739.884 333.379C739.784 333.475 739.728 333.606 739.728 333.742V337.535L736.265 339.432C736.144 339.5 736.055 339.611 736.018 339.741C735.982 339.872 736 340.011 736.07 340.128C736.119 340.204 736.187 340.268 736.268 340.312C736.348 340.356 736.439 340.379 736.532 340.38V340.38ZM743.772 333.161C743.865 333.163 743.957 333.139 744.038 333.093L749.524 330.094C749.816 330.326 750.183 330.452 750.561 330.452C750.94 330.452 751.306 330.326 751.599 330.094L757.084 333.093C757.164 333.139 757.256 333.163 757.35 333.161C757.443 333.163 757.535 333.14 757.616 333.096C757.697 333.052 757.765 332.987 757.812 332.91C757.847 332.852 757.87 332.789 757.879 332.723C757.888 332.658 757.883 332.591 757.865 332.526C757.847 332.462 757.816 332.402 757.773 332.35C757.73 332.298 757.677 332.255 757.617 332.223L752.132 329.213C752.15 329.121 752.159 329.027 752.159 328.933C752.158 328.618 752.054 328.312 751.863 328.057C751.672 327.802 751.403 327.611 751.094 327.51V321.491C751.088 321.359 751.029 321.234 750.93 321.143C750.831 321.051 750.699 321 750.561 321C750.424 321 750.292 321.051 750.193 321.143C750.093 321.234 750.035 321.359 750.029 321.491V327.51C749.719 327.611 749.45 327.802 749.259 328.057C749.068 328.312 748.964 328.618 748.963 328.933C748.963 329.027 748.972 329.121 748.99 329.213L743.505 332.223C743.445 332.255 743.392 332.298 743.349 332.351C743.307 332.403 743.275 332.463 743.257 332.527C743.239 332.591 743.234 332.658 743.243 332.723C743.252 332.789 743.275 332.852 743.31 332.91C743.357 332.987 743.425 333.051 743.506 333.095C743.587 333.14 743.679 333.163 743.772 333.161ZM750.561 328.429C750.665 328.43 750.767 328.461 750.853 328.518C750.939 328.574 751.006 328.654 751.045 328.747C751.084 328.841 751.093 328.943 751.072 329.041C751.05 329.14 750.999 329.23 750.925 329.3C750.85 329.371 750.756 329.418 750.654 329.437C750.551 329.455 750.445 329.444 750.349 329.405C750.254 329.366 750.172 329.3 750.115 329.216C750.058 329.132 750.028 329.033 750.029 328.933C750.031 328.798 750.089 328.671 750.188 328.576C750.288 328.482 750.421 328.429 750.561 328.429V328.429ZM761.393 348.847V339.848C761.393 339.712 761.337 339.581 761.237 339.485C761.137 339.388 761.002 339.334 760.86 339.334C760.719 339.334 760.583 339.388 760.483 339.485C760.383 339.581 760.327 339.712 760.327 339.848V348.567C757.338 347.802 754.251 348.208 751.092 348.17V331.971C751.092 331.835 751.036 331.704 750.936 331.608C750.836 331.512 750.7 331.457 750.559 331.457C750.417 331.457 750.282 331.512 750.182 331.608C750.082 331.704 750.026 331.835 750.026 331.971V348.17C746.869 348.208 743.782 347.802 740.79 348.567V339.848C740.79 339.712 740.734 339.581 740.634 339.485C740.534 339.388 740.399 339.334 740.257 339.334C740.116 339.334 739.98 339.388 739.88 339.485C739.78 339.581 739.724 339.712 739.724 339.848V348.847C740.759 349.447 743.1 348.595 750.557 348.615C753.364 348.624 756.995 348.238 761.393 348.847V348.847Z" fill="white"/>
</g>
<defs>
<clipPath id="clip0">
<rect width="1305" height="584" fill="white" transform="translate(0 -16)"/>
</clipPath>
</defs>
</svg>
